<!--?xml version="1.0" encoding="utf-8"?-->
<!-- Svg Vector Icons : http://www.onlinewebfonts.com/icon -->

<svg version="1.1" xmlns="http://www.w3.org/2000/svg" xmlns:xlink="http://www.w3.org/1999/xlink" x="0px" y="0px" viewBox="0 0 256 256" enable-background="new 0 0 256 256" xml:space="preserve">
<metadata> Svg Vector Icons : http://www.onlinewebfonts.com/icon </metadata>
<g><g><g><path fill="#f0b801" data-title="Layer 0" xs="0" d="M12.4,30.5c-2.4,1.4-2.3-4.3-2.4,97.4c0,72.4,0.1,94.9,0.6,95.8c1.2,2.7-7,2.5,117.4,2.5c81.2,0,114.6-0.1,115.4-0.5c0.6-0.3,1.4-1.1,1.8-1.8c0.7-1.2,0.8-8.4,0.8-95.9c0-102.8,0.2-96.4-2.5-97.6C241.6,29.5,13.9,29.6,12.4,30.5z M236.3,54.3V69H128H19.7V54.3V39.5H128h108.3V54.3z M236.2,147.7l0.1,68.8H128H19.7v-68.6c0-37.7,0.1-68.8,0.3-68.9c0.1-0.2,48.9-0.3,108.2-0.2l107.9,0.1L236.2,147.7z"/><path fill="#f0b801" data-title="Layer 1" xs="1" d="M32.8,49.7c-1.6,0.6-3,2.7-3,4.6c0,3.3,3.1,5.6,6.2,4.6c1.8-0.6,3.5-2.7,3.5-4.5s-1.3-3.8-3-4.5C34.7,49.1,34.2,49.1,32.8,49.7z"/><path fill="#f0b801" data-title="Layer 2" xs="2" d="M52.1,49.9c-1.8,0.9-3.1,3.4-2.7,5.3c0.4,1.7,2.2,3.5,3.9,3.9c1.9,0.4,4.4-0.9,5.3-2.8c0.9-1.9,0.9-2.3,0-4.1c-0.7-1.5-3-3-4.4-3C53.8,49.2,52.9,49.6,52.1,49.9z"/><path fill="#f0b801" data-title="Layer 3" xs="3" d="M72,49.8c-1.8,0.8-2.5,1.8-2.9,3.7c-0.6,3.5,2.8,6.5,6.1,5.4c3.5-1.2,4.6-5.2,2.2-7.8C75.9,49.4,73.9,49,72,49.8z"/><path fill="#f0b801" data-title="Layer 4" xs="4" d="M86.2,104.4c-1,0.8-30.6,40.7-31.6,42.5c-0.3,0.6-0.4,1.6-0.3,2.4c0.2,1.8,29.3,48.2,31.5,50.4c3.1,3,8,1,8-3.3c0-1.6,0.8-0.3-14.6-24.7C71.9,160,65.7,150,65.5,149.6c-0.2-0.4,5-7.8,13.6-19.4c7.6-10.3,14.1-19.1,14.3-19.6c1.7-3.1-0.7-7-4.3-7C88,103.6,86.8,104,86.2,104.4z"/><path fill="#f0b801" data-title="Layer 5" xs="5" d="M163.9,104.9c-1.5,1.5-1.8,3.9-0.8,5.7c0.3,0.6,6.5,9.2,14,19.2c7.4,10,13.6,18.5,13.8,18.8c0.2,0.4-4.7,8.7-14,23.3c-12.4,19.7-14.3,23-14.3,24.6c0,4.1,4.8,6.3,7.8,3.5c0.7-0.7,8.2-12,16.5-25.2c13.2-20.9,15.1-24.2,15.1-25.8c0-1.7-0.6-2.8-7.6-12.3c-20.6-28-23.8-32.2-24.8-32.6C167.5,103.1,165.4,103.5,163.9,104.9z"/><path fill="#f0b801" data-title="Layer 6" xs="6" d="M145.3,113.3c-0.6,0.2-1.2,0.7-1.6,1.1c-0.4,0.4-9.5,16.7-20.4,36.1c-21.2,37.9-20.9,37.3-18.9,39.9c0.5,0.6,1.7,1.4,2.5,1.7c1.4,0.5,1.9,0.4,3.3-0.3c1.6-0.8,3.2-3.5,21.7-36.6c17.1-30.6,20-36,20-37.6C151.9,114.1,148.6,111.9,145.3,113.3z"/></g></g></g>
</svg>