<!--?xml version="1.0" encoding="utf-8"?-->
<!-- Svg Vector Icons : http://www.onlinewebfonts.com/icon -->

<svg version="1.1" xmlns="http://www.w3.org/2000/svg" xmlns:xlink="http://www.w3.org/1999/xlink" x="0px" y="0px" viewBox="0 0 256 256" enable-background="new 0 0 256 256" xml:space="preserve">
<metadata> Svg Vector Icons : http://www.onlinewebfonts.com/icon </metadata>
<g><g><g><path fill="#f0b801" data-title="Layer 0" xs="0" d="M49.2,11.4c-8.7,2.8-10.1,3.8-21.8,15.5C18,36.2,16.4,38,14.8,41.2c-3.5,6.6-4.5,10.1-4.6,15.4l0,4.7L47,97.9l36.9,36.6l2.5-2.5l2.6-2.5l-26.5-26.5L35.9,76.6l4.4-4.4c2.4-2.4,4.7-4.4,5-4.3c0.3,0.1,12.8,12.2,27.7,27l27.2,26.8l2.4-2.4l2.5-2.5L77.7,89.4L50.4,62.1l5.7-5.7c3.1-3.1,5.9-5.7,6.2-5.7s8,7.5,17,16.6c9.1,9.1,21.2,21.1,26.9,26.5l10.3,10l2.5-2.5l2.5-2.5L94.5,72.4C79.7,57.7,67.7,45.5,67.7,45.3c0-0.3,2-2.5,4.5-5l4.5-4.5l9.8,9.7c5.4,5.3,17.6,17.5,27.2,27l17.4,17.3l2.5-2.5l2.5-2.5l-34.3-34.2C82.9,31.8,66,15,64.1,13.2L60.6,10h-3.7C54.2,10.1,52.2,10.4,49.2,11.4z M64.6,23.8l7.1,7.1L51.2,51.4L30.7,71.8l-7.2-7.2l-7.2-7.2l0.6-2.5c0.9-3.6,3.3-9.2,5-12c0.9-1.3,5.8-6.5,10.9-11.6c8.2-8,9.8-9.5,12.7-10.8c3.6-1.8,9.4-3.7,10.9-3.8C57.2,16.7,60,19.2,64.6,23.8z"/><path fill="#f0b801" data-title="Layer 1" xs="1" d="M217.9,21.6c-1,0.3-2.6,1-3.5,1.5c-1.2,0.7-85.7,86.8-110.6,112.7l-5.7,5.9l-3.1-1.2c-11.7-4.4-25.7-1.9-36.3,6.5c-4.3,3.4-7.9,7.9-10.7,13.4c-3.3,6.4-4,9.9-4.5,21.5c-0.7,15.4-2.1,19.5-9,26.4c-4.8,4.9-7.6,6.7-16.3,11.1c-7.7,3.9-8.5,4.7-8.1,9.3c0.2,3.3,1.9,5.8,4.8,7.1c2.9,1.3,15.7,4.5,22.5,5.7c8.4,1.4,23.8,1.8,31.2,0.7c13.2-1.9,25.1-6.2,38.3-14c10.4-6.1,17.7-17.7,21.1-33.6c0.7-3.1,0.9-6.1,0.9-12.9c0-5.6-0.2-9-0.5-9.4c-0.3-0.3,0.2-1.2,1.9-3c1.3-1.3,27.1-27.8,57.3-58.7c59.1-60.5,57.6-58.9,58.3-64.5c0.1-1.4,0-3.6-0.3-5c-0.6-2.4-1.1-3-8.7-10.7c-6.5-6.6-8.4-8.3-10.2-8.9C224.2,20.8,220.5,20.7,217.9,21.6z M231.2,34.7c4,4,7.5,7.8,7.8,8.6c1.3,3.2,2.6,1.8-47.9,53.6l-47.4,48.6l-9.9-9.9l-10-10l6.4-6.5c3.5-3.6,24.6-25.2,46.8-47.9c22.2-22.8,41.1-41.9,42.1-42.5c0.9-0.6,2.4-1.1,3.3-1.1C223.8,27.5,224.7,28.3,231.2,34.7z M128.9,140.6l9.9,9.9l-7.8,7.8c-4.3,4.3-8,7.9-8.2,7.9c-0.3,0-4.9-4.4-10.2-9.7l-9.7-9.7l8-8c4.4-4.4,8-8,8-8S123.5,135.2,128.9,140.6z M90.1,146.4c2.7,0.9,3.3,1.3,17.5,15.5l14.6,14.6l-0.3,7.8c-0.2,6.2-0.5,8.6-1.4,12.3c-3.5,13.2-9.1,21-19.3,26.7c-10,5.6-19,9.1-28.4,11.2c-4.3,0.9-6.3,1-16.5,1.1c-9.1,0-12.7-0.2-16.7-0.9c-9.8-1.7-22.6-5.2-22.6-6.2c0-0.3,2.1-1.6,4.6-2.8c12.2-5.9,21.5-14.2,25.4-22.7c2.3-4.9,3.1-9.5,3.5-19.7c0.3-5.3,0.8-11,1.2-12.8c2.5-10.6,11.8-21.1,21.5-24.1C78.4,144.8,85,144.8,90.1,146.4z"/><path fill="#f0b801" data-title="Layer 2" xs="2" d="M180.4,133.7l-2.5,2.5l16.4,16.4l16.5,16.5h-9.5h-9.5l-11.5-11.5l-11.5-11.5l-2.6,2.6l-2.7,2.6l11.5,11.2l11.5,11.2l-1.3,8.9c-0.7,4.9-1.5,9.6-1.7,10.4c-0.4,1.4-0.5,1.3-16.7-14.8L150.7,162l-2.5,2.5l-2.5,2.5l16.1,16.1c8.8,8.8,16,16.1,15.9,16.2c0,0.1-4,0.4-8.8,0.7l-8.7,0.5L148.9,189l-11.4-11.4l-2.6,2.6l-2.6,2.6l18.1,17.9c9.9,9.8,18.5,18.1,18.9,18.4c1.2,0.9,15.3,6.3,27.7,10.8c16,5.7,46.8,16.3,47,16.1c0.4-0.4-13-45.2-18.6-62c-2.2-6.5-4.5-13-5.3-14.4c-1-2.1-5.1-6.3-19.4-20.4l-18-17.9L180.4,133.7z M220.3,190.1c5.2,16.5,13.4,44.4,13.3,44.6c-0.3,0.3-45.2-15.3-55.6-19.3c-3.3-1.3-4.6-2.1-7.2-4.6c-1.8-1.7-3.2-3.2-3.2-3.4s4.7-0.6,10.5-0.9c5.8-0.3,10.7-0.7,10.8-0.9c0.1-0.2,1.2-6.5,2.3-14.1c1.1-7.6,2.1-14.1,2.3-14.6c0.2-0.8,1.1-0.8,11.1-0.8c8.3,0,10.8-0.1,10.9-0.6C215.4,174.5,216.2,176.9,220.3,190.1z"/></g></g></g>
</svg>