<!--?xml version="1.0" encoding="utf-8"?-->
<!-- Svg Vector Icons : http://www.onlinewebfonts.com/icon -->

<svg version="1.1" xmlns="http://www.w3.org/2000/svg" xmlns:xlink="http://www.w3.org/1999/xlink" x="0px" y="0px" viewBox="0 0 256 256" enable-background="new 0 0 256 256" xml:space="preserve">
<metadata> Svg Vector Icons : http://www.onlinewebfonts.com/icon </metadata>
<g><g><g><path fill="#f0b801" data-title="Layer 0" xs="0" d="M70,10.5c-6,1.9-10.3,6.6-11.6,12.7c-0.4,1.9-0.5,28.2-0.4,106.4l0.1,103.9l1.2,2.6c1.7,3.6,4.5,6.6,8.2,8.4l3,1.5H128h57.5l2.6-1.2c5.1-2.4,8.5-6.7,9.6-12.1c0.4-2,0.5-30.6,0.4-106.4l-0.1-103.6l-1.5-3c-1.8-3.6-4.7-6.5-8.4-8.2l-2.6-1.2L128.7,10C82.7,10,71.5,10.1,70,10.5z M185.7,18.6c1,0.5,2.4,1.8,3.1,2.9l1.3,1.9l0.1,10.8l0.1,10.8H128H65.7V34.7c0-12.6,0.4-13.8,4.8-16.2c1.2-0.7,7.2-0.7,57.4-0.8C183.2,17.7,183.9,17.7,185.7,18.6z M190.3,128.1v75.2H128H65.7v-75.2V52.8H128h62.3V128.1z M190.2,221.9l-0.1,10.8l-1.3,1.9c-0.7,1.1-2.1,2.4-3.1,2.9c-1.8,0.9-2.5,0.9-57.7,0.9c-53.9,0-56,0-57.6-0.9c-4.2-2.2-4.7-3.7-4.7-16.2v-10.2H128h62.3L190.2,221.9z"/><path fill="#f0b801" data-title="Layer 1" xs="1" d="M100.9,30.3c-1.4,1.5-1.3,4,0,5.3l1.1,1H128h26.1l1-1.1c1.4-1.5,1.3-4,0-5.3l-1.1-1H128h-26.1L100.9,30.3z"/><path fill="#f0b801" data-title="Layer 2" xs="2" d="M124.4,216.5c-1.7,0.9-3.5,3.3-4,5.5c-0.7,3.5,2.4,8,6,8.7c4.1,0.7,8.1-1.8,9-5.7C136.9,218.7,130.4,213.6,124.4,216.5z"/></g></g></g>
</svg>